# xmcd
#
# Track frame offsets: 
#        150
#        29677
#        69644
#        97781
#        124051
#        147642
#        168576
#        193477
#        226255
#        253802
#        279825
#        309108
#
# Disc length: 4436 seconds
#
# Revision: 0
# Processed by: cddbd v1.5.2PL0 Copyright (c) Steve Scherf et al.
# Submitted via: ExactAudioCopy v0.99pb3
#
DISCID=ad11520c
DTITLE=S.L.A.B. - Slow Loud And Bangin Volume 3 CD1 (S.L.A.B.-ED)
DYEAR=2006
DGENRE=Gangsta Rap
TTITLE0=Slabs on the rise Ft. Redd, LiL B, Trae, Jay'Ton, A3, Showtyme
TTITLE1=Ready 4 War Ft. Zro, LiL C, Archie Tee, Trae, Dougie, LiL B, J
TTITLE1=ay'Ton, 3-2 and Dyno
TTITLE2=Screw Ft. Trae, Shyna, Big Pokey, 3-2
TTITLE3=5 Minutes Of Flow Ft. Trae, Jay'Ton, Kendro, Warren G, Lil' B,
TTITLE3=Sha, Archie Lee and Lil' C
TTITLE4=Banging Up The Block Ft. Lil' B, Trae, Jay'Ton, Pimp Skinny, T
TTITLE4=2, Kiotti and Maurice
TTITLE5=Gossip Flow Ft. Lil' B, Trae, Jay'Ton, Dougie, Lil' T and Pimp S
TTITLE5=kinny
TTITLE6=Gimmie The Mic Ft. T-2, Trae, Dougie, Warren G, Pimp Skinny, J
TTITLE6=ay'Ton and Kepoe
TTITLE7=Does It Betta Ft. Wayne Bell, Pop, 3-2, 2, Kepoe, Trae, Warren
TTITLE7=G, Dougie, Raw-D  and  Lil' B
TTITLE8=Take Ova Ft. "Pretty" Fedd, Trae, Poppy, Starchy Arch, Lil' B,
TTITLE8=Unique and Scooby
TTITLE9=Put Yo Bets On Me Ft. Kendro, Trae, Lil' B and 311
TTITLE10=Standing Strong Ft. Billy Cook, 3-2, Trae, Lil' Head, Jay'Ton
TTITLE10=, Lil' B and Dougie 
TTITLE11=Skillz Ft. Jay'Ton, Trae and J Dub 
EXTD=
EXTT0=
EXTT1=
EXTT2=
EXTT3=
EXTT4=
EXTT5=
EXTT6=
EXTT7=
EXTT8=
EXTT9=
EXTT10=
EXTT11=
PLAYORDER=
